<?xml version="1.0" standalone="no"?>
<svg viewBox="0 0 200 200" xmlns="http://www.w3.org/2000/svg">
  <path fill="#818CF8" d="M43.6,-76.3C54,-69.4,58.3,-52.8,61.4,-38.4C64.5,-24.1,66.4,-12,68,0.9C69.6,13.9,70.9,27.8,67.8,42.1C64.6,56.3,57,70.9,45,77.4C32.9,83.9,16.5,82.3,0.7,81.2C-15.2,80.1,-30.3,79.4,-39.5,71.2C-48.7,63.1,-51.9,47.4,-60.1,34.3C-68.4,21.2,-81.8,10.6,-84.5,-1.5C-87.2,-13.7,-79.1,-27.4,-68.8,-36.9C-58.4,-46.4,-45.6,-51.7,-33.8,-57.7C-21.9,-63.8,-11,-70.5,2.8,-75.4C16.6,-80.3,33.1,-83.2,43.6,-76.3Z" transform="translate(100 100)" />
</svg>
